PathFileType	4	(X/Y/Z)	walk-thru1-3-TP.trc
DataRate	CameraRate	NumFrames	NumMarkers	Units	OrigDataRate	OrigDataStartFrame	OrigNumFrames
120.00	120.00	       4	60	mm	120.00	67	       529
Frame#	Time	Top.Head			Front.Head			Rear.Head			Jaw			C7			R.Clavicle			L.Clavicle			R.Shoulder			L.Shoulder			R.Scapula			L.Scapula			R.Scap.Inf			R.Biceps.Lateral			R.Elbow			R.Elbow.Medial			R.Forearm			R.Ulna			R.Radius			R.Wrist			R.Thumb.M1			R.Thumb.M2			R.Thumb.M3			R.Finger3.M1			R.Finger3.M2			R.Finger3.M3			L.Biceps.Lateral			L.Elbow			L.Elbow.Medial			L.Forearm			L.Ulna			L.Radius			L.Wrist			L.Thumb.M1			L.Thumb.M2			L.Thumb.M3			L.Finger3.M1			L.Finger3.M2			L.Finger3.M3			V.Sacral			R.ASIS			L.ASIS			R.Thigh			R.Thigh.Front			R.Knee			R.Knee.Medial			R.Shank			R.Ankle			R.Ankle.Medial			R.Heel			R.Toe			R.MedFoot			L.Thigh			L.Knee			L.Knee.Medial			L.Shank			L.Ankle			L.Ankle.Medial			L.Heel			L.Toe			L.MedFoot			V_mid_ASIS			V_R_Knee_JC			V_L_Knee_JC			V_R_Elbow_JC			V_L_Elbow_JC			V_R_Ankle_JC			V_L_Ankle_JC			V_R_Wrist_JC			V_L_Wrist_JC			V_R_ScaTrpz_1stMC_JC			V_R_1stMC_1stPP_JC			V_R_1stPP_1stDP_JC			V_R_LunCap_3rdMC_JC			V_R_3rdMC_3rdPP_JC			V_R_3rdPP_3rdMP_JC			V_R_3rdMP_3rdDP_JC			V_L_ScaTrpz_1stMC_JC			V_L_1stMC_1stPP_JC			V_L_1stPP_1stDP_JC			V_L_LunCap_3rdMC_JC			V_L_3rdMC_3rdPP_JC			V_L_3rdPP_3rdMP_JC			V_L_3rdMP_3rdPP_JC			V_ROOT_JC			V_R_Hip_JC			V_L_Hip_JC			V_R_GlenHum_JC			V_L_GlenHum_JC			V_ForeHead_Ctr			V_Vertex			V_Sagit_Lambdoid_Suture			V_R_FrontoTemp			V_L_FrontoTemporal			V_R_ParietalOccip			V_L_ParietalOcciptal			V_R_Temporal			V_L_Temporal			V_mid_FrontRearHead			V_mid_RLGlenHumCtrs			V_C7_vert			V_C1_vert			V_Mid_Hip			
		X1	Y1	Z1	X2	Y2	Z2	X3	Y3	Z3	X4	Y4	Z4	X5	Y5	Z5	X6	Y6	Z6	X7	Y7	Z7	X8	Y8	Z8	X9	Y9	Z9	X10	Y10	Z10	X11	Y11	Z11	X12	Y12	Z12	X13	Y13	Z13	X14	Y14	Z14	X15	Y15	Z15	X16	Y16	Z16	X17	Y17	Z17	X18	Y18	Z18	X19	Y19	Z19	X20	Y20	Z20	X21	Y21	Z21	X22	Y22	Z22	X23	Y23	Z23	X24	Y24	Z24	X25	Y25	Z25	X26	Y26	Z26	X27	Y27	Z27	X28	Y28	Z28	X29	Y29	Z29	X30	Y30	Z30	X31	Y31	Z31	X32	Y32	Z32	X33	Y33	Z33	X34	Y34	Z34	X35	Y35	Z35	X36	Y36	Z36	X37	Y37	Z37	X38	Y38	Z38	X39	Y39	Z39	X40	Y40	Z40	X41	Y41	Z41	X42	Y42	Z42	X43	Y43	Z43	X44	Y44	Z44	X45	Y45	Z45	X46	Y46	Z46	X47	Y47	Z47	X48	Y48	Z48	X49	Y49	Z49	X50	Y50	Z50	X51	Y51	Z51	X52	Y52	Z52	X53	Y53	Z53	X54	Y54	Z54	X55	Y55	Z55	X56	Y56	Z56	X57	Y57	Z57	X58	Y58	Z58	X59	Y59	Z59	X60	Y60	Z60	

67	0.550	1172.29858	67.71654	1806.08655	1070.17493	62.00919	1694.43225	1297.21326	63.34773	1706.66589	1114.65125	64.89037	1527.42676	1310.30859	56.49220	1572.21472	1219.21936	177.34082	1474.41443	1196.38416	-48.76509	1478.16052	1264.63318	262.68549	1469.17114	1255.87634	-148.27182	1490.54492	1366.04565	142.19814	1489.39795	1356.47302	-27.90709	1493.56799	1416.50171	147.20399	1402.23181	1329.39233	316.57382	1298.10437	1379.25671	333.36768	1148.73767	1396.27100	243.83592	1134.66211	1305.28503	287.33334	1024.93481	1351.53528	327.34897	928.40552	1291.12732	269.12360	891.89520	1303.35010	307.83908	843.67096	1283.17065	263.11661	856.41296	1252.31897	234.98056	808.04010	1217.74951	236.57439	776.99280	1269.67065	313.27365	769.99841	1258.03699	274.59601	715.37537	1271.34729	229.64064	692.02423	1272.54065	-216.63063	1341.77942	1279.42712	-264.42361	1166.44031	1328.36316	-201.74303	1144.96558	1205.46155	-233.48874	1068.06934	1246.11792	-257.35519	973.62213	1177.02295	-199.05576	931.75378	1176.00488	-233.89743	874.03125	1160.86938	-185.34801	867.92358	1160.84082	-151.47472	819.25067	1149.86365	-156.06340	758.54340	1150.44312	-247.46457	801.35272	1157.56921	-227.13872	743.59247	1177.24609	-207.86871	698.45874	1409.90491	34.93383	1095.93750	1329.10681	228.21039	1033.09436	1298.91113	-145.99327	1040.01782	1220.93311	211.97208	632.82672	1126.75891	143.32922	553.61578	1194.55444	195.64265	503.82190	1182.68237	76.43449	503.31763	1290.52930	148.25536	349.41226	1528.46008	171.03465	214.26569	1483.50024	79.06242	209.74063	1583.17969	112.38730	236.69495	1421.17725	125.01589	80.53487	1446.08081	93.42454	135.74274	1231.26685	-117.97481	655.64624	1195.88110	-88.15855	511.44199	1198.20715	25.47193	515.37518	1194.18811	-29.07054	313.05142	1299.19031	-42.50323	71.01977	1264.93701	50.33500	113.60411	1350.76404	20.91262	59.27330	1114.27515	-5.74799	51.03769	1177.77661	28.06411	75.95575																																																																																																																															
68	0.558	1165.82532	68.90209	1806.75952	1065.02722	62.99598	1694.10498	1291.29321	62.50638	1706.84741	1108.68201	63.19141	1527.29333	1303.86670	55.33337	1572.56396	1213.54895	176.34612	1474.29663	1190.14368	-49.23966	1478.72705	1260.45435	262.90710	1469.49438	1250.51697	-148.80595	1490.89685	1361.35254	141.77202	1489.88123	1350.61084	-28.83092	1493.93665	1411.21252	146.51140	1402.34778	1325.30481	317.97626	1298.01807	1375.14343	331.79916	1149.76904	1390.90698	242.72365	1135.59875	1300.18506	285.64789	1024.98718	1347.37000	326.42407	929.52753	1286.57214	270.69669	892.55829	1298.99353	306.87378	844.49249	1280.09534	262.98630	856.82520	1247.99182	234.82402	809.16992	1213.11670	237.22586	777.74994	1265.67139	313.07626	770.40326	1253.94360	275.10455	715.67383	1267.08142	229.70830	692.19965	1264.97632	-216.68527	1342.23938	1272.30493	-265.02698	1166.64050	1321.28711	-202.70407	1144.70911	1197.92529	-233.20355	1068.51489	1238.64026	-257.45779	973.72681	1166.95740	-200.94151	932.15173	1166.49683	-233.82600	874.31018	1151.99072	-186.42368	868.77606	1152.02661	-151.90268	819.33307	1139.04163	-156.34692	759.76007	1140.59790	-248.13942	802.86578	1148.23645	-227.13057	744.95508	1167.09241	-208.50484	700.22339	1404.44263	33.90682	1096.42346	1323.32971	226.71471	1033.08435	1294.86169	-146.96938	1041.41956	1210.97839	213.45724	635.10663	1115.63965	144.30621	556.61884	1183.10718	196.30406	505.94437	1170.51953	76.08135	504.73349	1277.71545	147.89632	351.01617	1514.91699	171.49104	214.23256	1468.66260	79.98715	208.63815	1569.32141	111.33182	235.18066	1404.11572	130.51270	81.63232	1431.44714	94.27892	135.10005	1227.44897	-119.02840	654.78271	1194.18860	-88.50681	510.46277	1195.55872	24.69331	514.79773	1192.60217	-29.57528	312.49857	1298.75464	-42.47764	71.00567	1264.96814	50.42899	113.56564	1350.79395	20.88683	59.40564	1114.18994	-5.74312	51.02093	1177.54272	28.05065	75.81163																																																																																																																															
69	0.567	1159.35034	67.76366	1807.46594	1058.77930	62.00739	1694.27173	1285.32214	61.77469	1707.84766	1103.30396	63.87436	1527.35303	1299.05896	55.23678	1573.07605	1208.40491	176.22682	1474.59692	1183.12708	-49.48792	1479.54846	1255.60596	261.48721	1469.51807	1244.88281	-148.55531	1491.30396	1355.99695	140.58275	1490.30884	1345.24854	-28.78191	1494.39539	1406.26965	146.08116	1403.63745	1320.48462	317.20316	1298.40625	1370.44739	331.95737	1151.01208	1385.29822	241.99814	1135.91321	1296.42712	283.76767	1026.04443	1342.52856	325.51016	929.42529	1280.92163	268.02866	892.66919	1293.33643	306.68613	845.67389	1274.18591	262.27289	857.82214	1242.73352	232.51167	809.27008	1208.23767	235.74374	778.35583	1261.35608	312.43973	771.16656	1247.70032	273.10959	715.93707	1262.10767	229.06956	692.53046	1259.01624	-217.42557	1342.31714	1263.88684	-264.92307	1167.32336	1313.95825	-203.65945	1145.44202	1189.62891	-234.07780	1069.76038	1228.96838	-258.54343	975.28613	1157.73474	-201.98174	932.97955	1156.69592	-234.33875	876.28735	1142.54602	-188.19293	870.88470	1143.54077	-150.02701	822.07837	1131.25989	-158.50534	760.56433	1132.18481	-248.47438	804.22540	1138.25281	-228.32788	747.11664	1156.93701	-209.51247	701.16779	1398.77563	32.89285	1097.83325	1314.34558	227.11745	1035.06140	1290.22620	-147.92526	1041.03540	1201.61060	213.15895	636.59625	1104.78223	143.61084	558.99115	1172.40479	195.54335	508.98093	1158.43140	75.70375	507.24295	1263.80444	149.97255	352.46973	1501.25647	171.43715	214.17287	1454.88293	79.86311	207.65477	1555.53528	110.89842	232.53218	1387.15698	134.58246	81.12238	1415.39148	97.01334	135.18446	1225.73853	-118.85743	654.66492	1191.94958	-88.85722	510.63333	1193.34204	25.05736	514.84302	1191.99280	-29.22795	312.65036	1298.75464	-42.47764	71.00567	1265.32056	49.66464	113.17783	1350.90576	20.85817	59.55558	1114.20215	-5.86395	51.24400	1177.56506	27.99525	75.86062																																																																																																																															
70	0.575	1153.28015	67.68736	1808.09363	1052.60010	61.63802	1694.98145	1279.18359	61.56774	1707.56750	1096.24841	62.43997	1527.54956	1292.83997	55.12409	1572.71313	1203.37415	177.01976	1475.48645	1177.22327	-49.35644	1479.28967	1252.29150	262.05008	1469.99426	1238.78235	-148.56198	1491.64099	1350.62952	140.66351	1490.93335	1339.38696	-30.21959	1494.62634	1401.59473	144.13205	1403.96912	1316.16492	316.05878	1298.81848	1365.44434	329.55157	1150.66235	1380.85596	241.35582	1136.39795	1291.85852	283.16150	1025.24109	1337.80383	326.31219	930.13708	1276.75781	268.51047	893.05634	1289.33411	307.16153	846.36029	1270.02063	261.12561	858.20911	1236.46777	235.75774	811.14325	1203.12170	236.67917	779.65717	1256.24133	312.56335	771.38647	1243.25244	273.70761	716.98438	1256.39587	228.65977	693.47333	1253.00391	-217.49889	1343.16077	1257.03235	-266.20184	1167.14331	1306.51599	-204.42834	1145.36755	1181.77393	-234.26520	1069.80127	1221.04431	-259.47067	975.49207	1151.11450	-200.11867	934.42938	1147.90906	-235.46349	877.32855	1133.80151	-187.52010	871.54388	1135.22607	-151.34819	822.97906	1121.41223	-158.41454	762.64844	1122.38916	-247.92163	805.60895	1128.33740	-228.85249	747.98492	1146.81470	-210.06601	702.63733	1394.17200	32.72747	1098.48633	1307.84692	226.89478	1035.74817	1284.78296	-148.34091	1041.14417	1191.67029	211.34680	638.84509	1094.52258	143.07713	562.31848	1160.55054	195.70285	511.44852	1149.36121	77.33573	509.47757	1252.07837	150.00110	353.55045	1485.57776	171.95284	212.26125	1439.61755	80.85011	205.91896	1541.51245	111.51458	229.49327	1369.49402	138.05147	81.84252	1398.35852	99.86233	134.25861	1222.07446	-117.83598	654.86615	1189.62329	-88.85072	510.44876	1193.08899	24.96468	514.94232	1191.33911	-29.44976	312.36407	1298.71069	-42.58900	71.41753	1265.27588	49.16616	112.84121	1350.45300	21.02457	59.76365	1113.89270	-6.14695	51.26761	1177.54272	28.05065	75.81163																																																																																																																															
